@startuml
title 基于GitHub的实验管理平台--类图
class users {
    <b>user_id</b> （用户ID）
    name （用户真实姓名）
    github_username （用户GitHub账号）
    update_date （用户GitHub账号修改日期）
    password （用户密码）
    disable （用户是否禁用）
}
class teachers{
    <b>teacher_id</b> （老师工号）
    department （老师所属部门）
    tests（实验集合）
}
class students{
    <b>student_id</b> （学号）
    class_name （班级）
    result_sum（成绩汇总）
    web_sum （网站正确与否汇总）
}
users <|- students
users <|-- teachers
class term{
    <b>term_id</b>（学期编号）
    term_date_start （学期开始时间）
    term_date_end （学期结束时间）
}
class subject{
    <b>sub_id</b> （课程编号）
    sub_name （课程名称）
    sub_num （课程可选人数）
}
class term_sub_record{
    <b>term_id</b> （学期编号）
    <b>sub_id</b> （课程编号）
    sub_name （课程名称）
}
term "1" -- "n" term_sub_record
subject "1" -- "n" term_sub_record
class teachers_sub_record{
    <b>teacher_id</b> （老师工号）
    <b>sub_id</b> （课程编号）
    <b>term_id</b> （学期编号）
}
teachers "1" -- "n" teachers_sub_record
term_sub_record "1" -- "n" teachers_sub_record
class students_sub_record{
    <b>student_id</b> （学号）
    <b>sub_id</b> （课程编号）
    <b>term_id</b> （学期编号）
    <b>teacher_id</b> （老师工号）
}
students "1" -- "n" students_sub_record
teachers_sub_record "1" -- "n" students_sub_record

class rule_score{
    <b>items_id</b> （评分项编号）
    items （评分项）
    items_weight（各项权重）
    <b>teacher_id</b>（外键-老师工号）
}
teachers "1" -- "1" rule_score
class grades {
    <b>student_id</b> （学号）
    <b>test_id</b> （实验编号）
    result （总分数）
    memo （评价）
    update_date （评改日期）
}

class tests {
    <b>test_id</b> （实验编号）
    title （实验名称）
    content （实验内容）
    end_time （截止日期）
    <b>teacher_id</b> （老师工号）
}
class detailGrades{
    <b>id</b>（编号）
    items_score （各项得分-100分制）
    <b>items_id</b>（外键-评分项编号）
}
grades <|-  detailGrades

teachers "1"--"n" tests
students "1" -- "n"  grades
tests "1" -- "n"  grades
@enduml